<svg id="Layer_1" data-name="Layer 1" xmlns="http://www.w3.org/2000/svg" viewBox="0 0 998.73 1003.89"><defs><style>.cls-1{fill:#fff;}.cls-1,.cls-10,.cls-3,.cls-4,.cls-5,.cls-6{stroke:#cfb97c;}.cls-1,.cls-10,.cls-2,.cls-3,.cls-4,.cls-5,.cls-6,.cls-7,.cls-8,.cls-9{stroke-miterlimit:10;}.cls-1,.cls-10{stroke-width:39px;}.cls-10,.cls-2,.cls-3,.cls-4,.cls-5,.cls-7{fill:none;}.cls-2,.cls-7,.cls-8,.cls-9{stroke:#231f20;}.cls-2,.cls-3,.cls-9{stroke-width:8px;}.cls-4,.cls-6,.cls-7,.cls-8{stroke-width:5px;}.cls-5{stroke-width:7px;}.cls-6{fill:#cfb97c;}.cls-8{fill:#231f20;}.cls-9{fill:#f7941d;}</style></defs><title>Myers Lab Logo CU Boulder Gold Circle white background_v001_20200824</title><circle class="cls-1" cx="499.36" cy="504.53" r="479.86"/><polyline class="cls-2" points="846.32 392.17 811.11 450.86 689.39 451.86 661.59 499.37"/><polyline class="cls-2" points="684.81 459.3 689.07 452.55 646.68 379.12 723.84 245.47"/><line class="cls-2" x1="356.96" y1="719.11" x2="517.92" y2="719.11"/><line class="cls-3" x1="455.14" y1="486.85" x2="609" y2="488.06"/><line class="cls-2" x1="390.04" y1="257.15" x2="647.45" y2="257.15"/><line class="cls-2" x1="757.21" y1="565.51" x2="645.11" y2="565.51"/><line class="cls-2" x1="655.55" y1="505.83" x2="689.39" y2="563.88"/><line class="cls-2" x1="846.81" y1="565.51" x2="750.24" y2="565.51"/><line class="cls-4" x1="561.03" y1="818.11" x2="490.74" y2="777.65"/><line class="cls-4" x1="599.09" y1="751.97" x2="530.04" y2="712.23"/><line class="cls-4" x1="585.73" y1="787.79" x2="502.91" y2="739.97"/><line class="cls-4" x1="632.82" y1="686.41" x2="568.87" y2="649.61"/><line class="cls-4" x1="670.76" y1="620.21" x2="602.94" y2="581.17"/><line class="cls-4" x1="659.39" y1="657.17" x2="576.58" y2="609.35"/><path class="cls-3" d="M538.1,836.34a81.82,81.82,0,0,1,75.39-130.81" transform="translate(-30.57 -6.74)"/><path class="cls-3" d="M686.25,574.49c17.17,27.62,22.53,61.15,5.53,90.59A81.6,81.6,0,0,1,610.5,705.2" transform="translate(-30.57 -6.74)"/><line class="cls-4" x1="486.85" y1="946.38" x2="416.56" y2="905.92"/><line class="cls-4" x1="524.91" y1="880.24" x2="455.86" y2="840.5"/><line class="cls-4" x1="511.55" y1="916.06" x2="428.74" y2="868.25"/><path class="cls-3" d="M535.66,833c19.46,25.39,24.59,62.8,7.59,92.24A81.58,81.58,0,0,1,462,965.32" transform="translate(-30.57 -6.74)"/><path class="cls-2" d="M614.49,704a81.6,81.6,0,0,1-5.9-90.44c17-29.44,43.08-42.23,75.42-41.43" transform="translate(-30.57 -6.74)"/><path class="cls-2" d="M614.49,704a81.61,81.61,0,0,1,5.89,90.46c-17,29.43-52.19,43.79-83.91,39.64" transform="translate(-30.57 -6.74)"/><path class="cls-2" d="M463.84,966c-19.46-25.39-23.39-62.06-6.4-91.5a81.61,81.61,0,0,1,81.29-40.12" transform="translate(-30.57 -6.74)"/><line class="cls-3" x1="608.98" y1="486.85" x2="658.98" y2="573.46"/><line class="cls-3" x1="609.16" y1="489.97" x2="672.19" y2="380.79"/><line class="cls-3" x1="623" y1="511.88" x2="702.51" y2="374.16"/><line class="cls-3" x1="748.91" y1="301.05" x2="756.98" y2="331.15"/><line class="cls-3" x1="730.7" y1="374.67" x2="757.61" y2="328.06"/><circle class="cls-4" cx="856.15" cy="274.37" r="9.34"/><path class="cls-2" d="M384,725.84a79.06,79.06,0,0,1-79.07,79.08h-111V646.78h111A79.06,79.06,0,0,1,384,725.84Z" transform="translate(-30.57 -6.74)"/><path class="cls-2" d="M420.61,263.9c-15.44,45.24-53,77.47-97.08,78.68-.85,0-1.7,0-2.56,0H236.86c15.47-17.49,25.56-46.27,25.56-78.81s-10-61.11-25.39-78.62H321c.86,0,1.71,0,2.56,0C367.65,186.42,405.18,218.65,420.61,263.9Z" transform="translate(-30.57 -6.74)"/><polyline class="cls-3" points="414.26 488.73 262.03 568.13 262.03 406.14 414.34 484.33"/><ellipse class="cls-5" cx="436.16" cy="486.85" rx="18.99" ry="19.07"/><line class="cls-2" x1="123.92" y1="218.18" x2="225.57" y2="217.95"/><line class="cls-2" x1="73.81" y1="296.34" x2="224.23" y2="296.34"/><line class="cls-2" x1="52.3" y1="680.16" x2="163.69" y2="679.91"/><line class="cls-2" x1="91.04" y1="758.3" x2="162.35" y2="758.3"/><line class="cls-3" x1="19.5" y1="488.91" x2="258.29" y2="488.57"/><circle class="cls-4" cx="807.78" cy="283.71" r="9.34"/><circle class="cls-4" cx="736.85" cy="150.41" r="9.34"/><circle class="cls-6" cx="746.77" cy="293.05" r="9.34"/><circle class="cls-6" cx="686.45" cy="189.59" r="9.34"/><circle class="cls-7" cx="728.82" cy="236.69" r="9.34"/><circle class="cls-7" cx="896.28" cy="345.03" r="9.34"/><circle class="cls-7" cx="887.64" cy="490.75" r="9.34"/><circle class="cls-8" cx="850.99" cy="384.09" r="9.34"/><line class="cls-9" x1="818.58" y1="565.51" x2="900.95" y2="422.84"/><circle class="cls-7" cx="905.62" cy="414.75" r="9.34"/><line class="cls-2" x1="655.55" y1="509.83" x2="690.45" y2="449.38"/><polyline class="cls-2" points="891.06 353.14 824.28 468.8 700.33 468.8 677.25 507.31 710 564.07"/><polyline class="cls-2" points="820 565.51 845.78 565.51 884.05 499.37"/><polyline class="cls-3" points="662.76 397.13 677.25 372 628.64 289.73 681.78 197.68 682.46 196.51"/><polyline class="cls-3" points="693.23 390.08 702.09 375.21 654.55 292.81 732.23 158.26"/><polyline class="cls-3" points="695.74 385.81 702.25 374.88 798.36 374.41 851.1 283.06 797.28 376.27"/><polyline class="cls-3" points="731.51 373.26 757.37 329.97 786.29 322.22 803.86 291.79"/><circle class="cls-10" cx="499.36" cy="499.36" r="479.86"/></svg>