<svg id="Layer_1" data-name="Layer 1" xmlns="http://www.w3.org/2000/svg" viewBox="0 0 265.15 254.9"><defs><style>.cls-1{fill:#2962ff;stroke:#2962ff;stroke-miterlimit:10;stroke-width:8px;}</style></defs><title>CU Simple</title><path class="cls-1" d="M380,353.2q0-35.24,0-70.45c0-1.15.27-1.49,1.45-1.48q24.44.06,48.87,0c1.07,0,1.44.23,1.44,1.39q-.08,14.25,0,28.49c0,1.08-.28,1.37-1.35,1.36-5.78-.05-11.56,0-17.34-.06-1.28,0-1.51.39-1.51,1.57q0,56.44,0,112.88a3.09,3.09,0,0,1-1,2.44q-13.28,13.05-26.47,26.18a2.5,2.5,0,0,1-1.91.79q-48,0-96,0a2.57,2.57,0,0,1-2-.84q-13.2-13.12-26.44-26.2a2.85,2.85,0,0,1-.94-2.21c0-13.83,0-27.65.05-41.47,0-1.15-.27-1.49-1.46-1.48-17.22,0-34.43,0-51.65,0a2.85,2.85,0,0,1-2.22-.92q-13-13.05-26.08-26.05a2.56,2.56,0,0,1-.85-2q0-58.4,0-116.77a2.59,2.59,0,0,1,.84-2q13.09-13,26.16-26.14a2.73,2.73,0,0,1,2.13-.85q58.5,0,117,0a2.68,2.68,0,0,1,2.11.88q13,13.08,26,26.09a2.59,2.59,0,0,1,.83,2q0,15.71,0,31.41c0,1.09-.3,1.33-1.35,1.33q-14.25-.06-28.5,0c-1,0-1.26-.32-1.25-1.3,0-9.5,0-19,0-28.49,0-1-.21-1.31-1.25-1.31q-55.31,0-110.59,0c-1,0-1.2.29-1.2,1.23q0,55.41,0,110.82c0,.9.22,1.17,1.14,1.17q24.5,0,49,0c.85,0,1.09-.26,1.09-1.1q0-19.27,0-38.56c0-.95-.33-1.13-1.19-1.12-6,0-12,0-18,0-1.1,0-1.33-.33-1.32-1.37q.06-14.25,0-28.49c0-1,.2-1.38,1.31-1.38q24.44.06,48.87,0c1.07,0,1.34.29,1.34,1.35q0,34.5,0,69c0,1.62,0,1.62,1.67,1.62,9.25,0,18.51,0,27.76,0,1.07,0,1.36-.27,1.35-1.34,0-9.3,0-18.6-.05-27.89,0-1.15.35-1.39,1.42-1.39q14.19.06,28.38,0c1,0,1.31.21,1.31,1.26q-.06,15.77,0,31.52A2,2,0,0,1,349,357q-13.21,13.19-26.39,26.42a2.33,2.33,0,0,1-1.82.71c-10.51,0-21,0-31.53,0-1.07,0-1.45.24-1.45,1.4q.07,19.17,0,38.32c0,1,.22,1.31,1.26,1.31q44.81,0,89.61,0c1.12,0,1.31-.36,1.31-1.37Q380,388.48,380,353.2Z" transform="translate(-170.59 -205.41)"/></svg>