<svg id="Layer_1" data-name="Layer 1" xmlns="http://www.w3.org/2000/svg" viewBox="0 0 241.96 220.12"><defs><style>.cls-1{fill:#2962ff;}</style></defs><title>Utah U</title><path class="cls-1" d="M145.07,246.06c-16.82,0-33.65-.06-50.47.06a9.41,9.41,0,0,1-7.48-2.92q-19-19.22-38.26-38.08a8.78,8.78,0,0,1-2.85-7c.09-33.65,0-67.3.16-100.95,0-4.25-1.22-5.41-5.29-5.1-4.64.36-9.32,0-14,.12-2.16.06-2.85-.66-2.84-2.84.06-20.16.1-40.32,0-60.47,0-3.28,1.82-2.85,3.82-2.85q29.24,0,58.47,0c14.33,0,28.66.1,43-.07,3.45-.05,4.89.41,4.84,4.47-.26,19.15-.22,38.31,0,57.47,0,3.61-1.08,4.52-4.48,4.32-4.82-.28-9.66,0-14.49-.11-2.34-.07-3.2.63-3.19,3.08q.11,40.74,0,81.46c0,2.85,1.15,3.23,3.55,3.23,19.66-.07,39.32-.1,59,0,2.81,0,3.68-.73,3.66-3.61q-.15-40.25,0-80.47c0-3.35-1.28-3.82-4.1-3.71-5,.18-10-.06-15,.09-2.41.07-3.1-.77-3.09-3.14q.12-30,0-60c0-2.41.74-3.1,3.11-3.09q52,.09,104,0c2.58,0,3,1,2.95,3.23-.07,19.83-.1,39.65,0,59.47,0,3-1,3.63-3.72,3.52-4.66-.2-9.34.18-14-.13-3.54-.23-4.43.95-4.42,4.44.13,33.65,0,67.3.15,100.95a10.38,10.38,0,0,1-3.46,8.23q-19,18.49-37.56,37.35a9.38,9.38,0,0,1-7.43,3C178.72,246,161.9,246.06,145.07,246.06Z" transform="translate(-24.02 -26)"/></svg>